<?xml version="1.0"?>
<svg width="82" height="142" xmlns="http://www.w3.org/2000/svg" xmlns:svg="http://www.w3.org/2000/svg">
 <!-- Created with SVG-edit - http://svg-edit.googlecode.com/ -->
 <g>
  <title>Layer 1</title>
  <text stroke="#000000" transform="matrix(1.7832609415054321,0,0,1.9285714626312256,-219.4721635002643,-181.071435213089) " xml:space="preserve" text-anchor="middle" font-family="Monospace" font-size="24" id="svg_1" y="161.495205" x="146.27877" stroke-width="0" fill="#000000">Joo</text>
  <path stroke="#333333" id="svg_7" d="m10.799341,62.918585l60.347968,0.024238l-1.958306,3.044708l-56.408236,-0.072712l-1.981429,-2.996234l0.000003,0zm0.414718,-40.501521l59.54157,-0.072712l1.727963,3.123405l-63.020563,0.024238l1.751029,-3.074932zm-5.876026,20.294766l71.247512,-0.072712l-0.092096,3.123408l-71.109338,-0.048474l-0.046079,-3.002223zm71.306491,0.289694c0,20.677692 -15.993472,37.499206 -35.655337,37.499206c-19.65337,0 -35.643861,-16.824553 -35.643861,-37.499206c0,-20.674753 15.993382,-37.496263 35.643861,-37.496263c19.661867,-0.003038 35.655337,16.82151 35.655337,37.496263zm-35.652537,-40.501523c-21.222211,0 -38.491988,18.167282 -38.491988,40.498478c0,22.334239 17.269779,40.501518 38.491988,40.501518c21.233767,0 38.50066,-18.167279 38.50066,-40.501518c0,-22.331196 -17.266891,-40.498478 -38.50066,-40.498478zm10.801932,40.501523c0,22.095836 -5.690656,37.499206 -10.801932,37.499206c-5.105493,0 -10.796059,-15.40337 -10.796059,-37.499206c0,-22.101919 5.68776,-37.496263 10.796059,-37.496263c5.108391,-0.003038 10.801932,15.394344 10.801932,37.496263zm-10.801932,-40.501523c-8.865708,0 -13.649965,20.867753 -13.649965,40.498478c0,19.636719 4.784257,40.501518 13.649965,40.501518c8.865798,0 13.658726,-20.867834 13.658726,-40.501518c-0.00289,-19.630725 -4.792927,-40.498478 -13.658726,-40.498478zm25.298073,40.501523c0,20.677692 -11.352593,37.499206 -25.298073,37.499206c-13.942582,0 -25.2894,-16.824553 -25.2894,-37.499206c0,-20.674753 11.346818,-37.496263 25.2894,-37.496263c13.94548,-0.003038 25.298073,16.82151 25.298073,37.496263zm-25.298073,-40.501523c-15.514404,0 -28.143304,18.167282 -28.143304,40.498478c0,22.334239 12.6289,40.501518 28.143304,40.501518c15.520184,0 28.146282,-18.167279 28.146282,-40.501518c0,-22.331196 -12.626098,-40.498478 -28.146282,-40.498478z" stroke-linecap="null" stroke-linejoin="null" stroke-dasharray="null" stroke-width="5" fill="#b2b2b2"/>
 </g>
</svg>